<?xml version="1.0" encoding="UTF-8"?>
<svg width="182px" height="40px" viewBox="0 0 182 40" version="1.1" xmlns="http://www.w3.org/2000/svg" xmlns:xlink="http://www.w3.org/1999/xlink">
    <!-- Generator: Sketch 52.5 (67469) - http://www.bohemiancoding.com/sketch -->
    <title>cyLOGO</title>
    <desc>Created with Sketch.</desc>
    <g id="cyLOGO" stroke="none" stroke-width="1" fill="none" fill-rule="evenodd">
        <g>
            <g id="分组">
                <path d="M8.79583333,15.4208333 C8.77916667,15.4666667 8.7625,15.5083333 8.75,15.55 C8.30416667,16.6625 8.0375,17.8416667 7.95416667,19.0541667 L5.54583333,21.4625 C5.4375,21.5708333 5.32916667,21.6833333 5.22916667,21.7958333 C5.19583333,21.8291667 5.16666667,21.8666667 5.1375,21.9 C5.03333333,22.0125 4.9375,22.1333333 4.84166667,22.2541667 C4.83333333,22.2625 4.82916667,22.2666667 4.825,22.275 L4.82083333,22.275 C4.81666667,22.2708333 4.8125,22.2625 4.80833333,22.2541667 C4.78333333,22.2125 4.75833333,22.1708333 4.73333333,22.125 C4.70833333,22.0833333 4.68333333,22.0375 4.6625,21.9916667 C4.65416667,21.9791667 4.64583333,21.9625 4.6375,21.9458333 C4.62916667,21.9333333 4.625,21.9166667 4.61666667,21.9041667 C4.5875,21.8375 4.55833333,21.775 4.52916667,21.7041667 C4.47916667,21.5916667 4.43333333,21.4708333 4.39583333,21.3541667 C4.37083333,21.2791667 4.34583333,21.2083333 4.32916667,21.1333333 C4.325,21.1166667 4.32083333,21.1041667 4.31666667,21.0875 C4.31666667,21.0833333 4.3125,21.0791667 4.3125,21.075 C4.30416667,21.0416667 4.29583333,21.0041667 4.2875,20.9666667 C4.275,20.9291667 4.26666667,20.8916667 4.2625,20.85 C4.24166667,20.7583333 4.225,20.6625 4.2125,20.5666667 C4.19166667,20.4375 4.17916667,20.3041667 4.17083333,20.1708333 C4.16666667,20.0916667 4.16666667,20.0166667 4.16666667,19.9375 C4.16666667,19.8583333 4.16666667,19.7833333 4.17083333,19.7083333 C4.21666667,18.8625 4.49583333,18.05 4.97916667,17.3583333 C5.79166667,16.1916667 7.125,15.4666667 8.55833333,15.425 C8.59583333,15.4208333 8.64166667,15.4208333 8.68333333,15.4208333 L8.79583333,15.4208333 Z" id="Fill-1" fill="#6371B4"></path>
                <path d="M10.9041667,32.2791667 C10.6416667,32.2166667 10.3875,32.1291667 10.1416667,32.0166667 C10.0791667,31.9916667 10.0166667,31.9625 9.95416667,31.9333333 C9.84166667,31.8791667 9.73333333,31.8166667 9.62916667,31.7541667 C9.575,31.7208333 9.52083333,31.6875 9.47083333,31.65 C9.39583333,31.6041667 9.325,31.55 9.25,31.4958333 C9.17916667,31.4416667 9.10833333,31.3875 9.04166667,31.3291667 L9.03333333,31.3208333 C8.87083333,31.1666667 8.7125,31.0041667 8.55833333,30.8458333 C8.55833333,30.8416667 8.55416667,30.8375 8.55,30.8333333 L8.52916667,30.8125 C8.01666667,30.2083333 7.675,29.475 7.54166667,28.6875 C7.2875,27.2875 7.72083333,25.8333333 8.6875,24.8083333 L8.86666667,24.6291667 L8.92083333,24.7458333 C9.40416667,25.8583333 10.05,26.8833333 10.8375,27.7916667 L10.8375,31.1916667 C10.8375,31.3125 10.8416667,31.4333333 10.8458333,31.55 C10.85,31.6666667 10.8541667,31.7833333 10.8666667,31.9 C10.875,32.0125 10.8833333,32.125 10.9,32.2375 C10.9,32.25 10.9,32.2625 10.9041667,32.2791667" id="Fill-3" fill="#6371B4"></path>
                <path d="M22.275,35.0541944 C22.2708333,35.0583611 22.2625,35.0625278 22.2541667,35.0666944 C22.1708333,35.1208611 22.0833333,35.1666944 21.9916667,35.2125278 C21.9791667,35.2208611 21.9625,35.2291944 21.9458333,35.2375278 C21.8666667,35.2791944 21.7833333,35.3166944 21.6958333,35.3500278 C21.6,35.3916944 21.5041667,35.4291944 21.4041667,35.4625278 C21.3041667,35.4958611 21.2083333,35.5291944 21.1083333,35.5541944 L21.1,35.5541944 C21,35.5833611 20.9,35.6083611 20.7958333,35.6250278 C20.5916667,35.6666944 20.3833333,35.6916944 20.1708333,35.7041944 C20.0958333,35.7083611 20.0166667,35.7083611 19.9375,35.7083611 C19.8541667,35.7083611 19.7833333,35.7083611 19.7083333,35.7041944 C18.8625,35.6583611 18.05,35.3791944 17.3583333,34.8958611 C16.1916667,34.0875278 15.4666667,32.7541944 15.425,31.3208611 C15.4208333,31.2791944 15.4208333,31.2375278 15.4208333,31.1916944 L15.4208333,31.0833611 C15.4666667,31.0958611 15.5083333,31.1125278 15.55,31.1291944 C16.6625,31.5708611 17.8416667,31.8375278 19.0541667,31.9250278 L21.4625,34.3333611 C21.5625,34.4333611 21.6625,34.5291944 21.7666667,34.6208611 C21.8333333,34.6833611 21.9041667,34.7458611 21.975,34.8041944 C22.075,34.8916944 22.1708333,34.9708611 22.275,35.0541944" id="Fill-5" fill="#6371B4"></path>
                <path d="M32.2791667,28.975 C32.2375,29.1416667 32.1875,29.3083333 32.125,29.4708333 C32.1041667,29.5375 32.0791667,29.6041667 32.0458333,29.6708333 C31.9416667,29.9291667 31.8041667,30.175 31.6458333,30.4125 C31.6041667,30.475 31.5583333,30.5375 31.5125,30.6 C31.4625,30.6708333 31.4083333,30.7416667 31.35,30.8083333 L31.3291667,30.8333333 C31.325,30.8375 31.3208333,30.8416667 31.3208333,30.8458333 C31.1625,31.0083333 31,31.1708333 30.8208333,31.3416667 C30.2125,31.8583333 29.475,32.2041667 28.6875,32.3375 C27.2875,32.5875 25.8333333,32.1583333 24.8083333,31.1916667 L24.6291667,31.0125 L24.7458333,30.9583333 C25.8583333,30.475 26.8833333,29.8291667 27.7916667,29.0375 L31.1916667,29.0375 C31.3291667,29.0375 31.4666667,29.0333333 31.6041667,29.025 C31.6333333,29.025 31.6583333,29.025 31.6875,29.0208333 L31.7125,29.0208333 C31.7333333,29.0208333 31.75,29.0208333 31.7708333,29.0166667 C31.7916667,29.0166667 31.8125,29.0166667 31.8333333,29.0125 C31.9708333,29.0083333 32.1083333,28.9916667 32.2416667,28.9791667 C32.2541667,28.9791667 32.2666667,28.975 32.2791667,28.975" id="Fill-7" fill="#6371B4"></path>
                <path d="M31.5416667,14.6458333 C31.475,14.7375 31.4041667,14.8291667 31.3333333,14.9125 C31.2833333,14.9708333 31.2375,15.0208333 31.1875,15.075 L31.0125,15.25 C30.9916667,15.2083333 30.975,15.1708333 30.9541667,15.1291667 C30.475,14.025 29.8333333,13.0041667 29.0375,12.0875 L29.0375,8.68333333 C29.0375,8.5375 29.0333333,8.39166667 29.025,8.25 C29.025,8.225 29.0208333,8.20416667 29.0208333,8.17916667 C29.025,8.15833333 29.0208333,8.13333333 29.0208333,8.1125 C29.0125,7.95 28.9958333,7.7875 28.9791667,7.63333333 C28.9791667,7.625 28.975,7.6125 28.975,7.6 C29.2375,7.6625 29.4916667,7.75 29.7375,7.8625 C29.8,7.8875 29.8625,7.91666667 29.925,7.94583333 C29.9458333,7.95833333 29.9625,7.96666667 29.9833333,7.97916667 C30.0458333,8.00833333 30.1083333,8.04166667 30.1666667,8.07916667 C30.1791667,8.08333333 30.1916667,8.09166667 30.2,8.1 C30.2708333,8.14166667 30.3416667,8.18333333 30.4083333,8.22916667 C30.4833333,8.27916667 30.5541667,8.32916667 30.625,8.38333333 C30.6958333,8.4375 30.7666667,8.49583333 30.8333333,8.55416667 C30.8375,8.55833333 30.8416667,8.5625 30.8458333,8.5625 C31,8.70833333 31.1458333,8.85416667 31.2916667,9.00833333 C31.3,9.01666667 31.3083333,9.02916667 31.3166667,9.0375 L31.3541667,9.075 C31.8666667,9.67916667 32.2041667,10.4083333 32.3375,11.1875 C32.5583333,12.4041667 32.2625,13.6583333 31.5416667,14.6458333" id="Fill-9" fill="#6371B4"></path>
                <path d="M24.4541667,8.68333333 L24.4541667,8.79583333 L24.3333333,8.75 C23.2125,8.30416667 22.0333333,8.0375 20.8208333,7.95416667 L18.4166667,5.54583333 C18.1625,5.29166667 17.8875,5.05 17.6083333,4.82916667 C17.6083333,4.825 17.6041667,4.82083333 17.6041667,4.82083333 C17.6083333,4.81666667 17.6166667,4.8125 17.625,4.80833333 C17.7083333,4.75416667 17.7958333,4.70833333 17.8875,4.6625 C17.9041667,4.65416667 17.9208333,4.64583333 17.9375,4.6375 C18.0125,4.59583333 18.0916667,4.5625 18.175,4.52916667 C18.2875,4.47916667 18.4083333,4.43333333 18.525,4.39583333 C18.6083333,4.36666667 18.6875,4.34166667 18.7708333,4.32083333 L18.7791667,4.32083333 C18.8625,4.29583333 18.95,4.275 19.0375,4.25833333 C19.2583333,4.2125 19.4791667,4.18333333 19.7083333,4.17083333 C19.7833333,4.16666667 19.8583333,4.17083333 19.9375,4.16666667 C20.0208333,4.16666667 20.0916667,4.16666667 20.1708333,4.17083333 C21.0166667,4.21666667 21.8291667,4.49583333 22.5208333,4.97916667 C23.6875,5.79166667 24.4083333,7.125 24.45,8.5625 C24.4541667,8.6 24.4541667,8.64583333 24.4541667,8.68333333" id="Fill-11" fill="#6371B4"></path>
                <path d="M15.2500278,8.87083333 L15.1291944,8.92083333 C14.0333611,9.39583333 13.0125278,10.0416667 12.0916944,10.8375 L8.68336111,10.8375 C8.56252778,10.8375 8.44169444,10.8416667 8.32502778,10.8458333 C8.20836111,10.85 8.09169444,10.8583333 7.97502778,10.8666667 C7.87086111,10.875 7.76669444,10.8833333 7.66669444,10.8958333 C7.64586111,10.8958333 7.62502778,10.9 7.60002778,10.9041667 C7.62086111,10.8083333 7.65002778,10.7125 7.67919444,10.6166667 C7.70419444,10.525 7.73752778,10.4291667 7.77502778,10.3416667 C7.86669444,10.1041667 7.97502778,9.875 8.10836111,9.65833333 C8.14169444,9.60416667 8.17502778,9.55 8.21252778,9.49583333 C8.30836111,9.35 8.41252778,9.20833333 8.52502778,9.075 L8.55002778,9.04583333 C8.55419444,9.04166667 8.55836111,9.0375 8.56252778,9.03333333 C8.63752778,8.95 8.71252778,8.87083333 8.79169444,8.79166667 C8.85419444,8.73333333 8.91252778,8.675 8.97919444,8.60833333 C9.00419444,8.5875 9.03336111,8.5625 9.05836111,8.5375 C9.66669444,8.02083333 10.4000278,7.675 11.1875278,7.54166667 C12.5875278,7.29166667 14.0416944,7.72083333 15.0708611,8.69166667 L15.2500278,8.87083333 Z" id="Fill-13" fill="#6371B4"></path>
                <path d="M35.7083333,19.9375 C35.7083333,20.0166667 35.7083333,20.0916667 35.7041667,20.1708333 C35.6583333,21.0166667 35.3791667,21.8291667 34.8958333,22.5208333 C34.0875,23.6875 32.7541667,24.4083333 31.3208333,24.45 C31.2791667,24.4541667 31.2375,24.4541667 31.1916667,24.4541667 L31.0833333,24.4541667 C31.0958333,24.4125 31.1125,24.3708333 31.1291667,24.3291667 C31.5708333,23.2125 31.8375,22.0333333 31.925,20.8208333 L34.3333333,18.4166667 C34.4583333,18.2875 34.5833333,18.1541667 34.7083333,18.0166667 C34.8125,17.8958333 34.9166667,17.7708333 35.0166667,17.6458333 C35.025,17.6333333 35.0375,17.625 35.0416667,17.6125 C35.0458333,17.6083333 35.05,17.6083333 35.0541667,17.6041667 C35.0583333,17.6083333 35.0625,17.6166667 35.0666667,17.625 C35.1208333,17.7083333 35.1666667,17.7958333 35.2125,17.8875 C35.2208333,17.9041667 35.2291667,17.9208333 35.2375,17.9375 C35.2791667,18.0166667 35.3166667,18.1 35.35,18.1833333 C35.3916667,18.2791667 35.4291667,18.375 35.4625,18.475 C35.4958333,18.575 35.5291667,18.6708333 35.5541667,18.7708333 L35.5541667,18.7791667 C35.5833333,18.8791667 35.6083333,18.9791667 35.625,19.0833333 C35.6666667,19.2875 35.6916667,19.4958333 35.7041667,19.7083333 C35.7083333,19.7833333 35.7083333,19.8583333 35.7083333,19.9375" id="Fill-15" fill="#6371B4"></path>
                <path d="M12.5916667,36.5541667 C10.075,36.7333333 7.62916667,35.8291667 5.84166667,34.0375 C3.9625,32.1583333 3.05833333,29.5625 3.35833333,26.9125 C3.49583333,25.6833333 3.88333333,24.525 4.50833333,23.4708333 C4.59166667,23.3333333 4.66666667,23.2083333 4.74583333,23.0916667 C4.77083333,23.05 4.8,23.0083333 4.825,22.9708333 C4.825,22.9666667 4.82916667,22.9625 4.83333333,22.9583333 C4.84166667,22.9458333 4.85416667,22.9333333 4.8625,22.9208333 L4.97916667,22.7625 C5.2375,22.4083333 5.525,22.0708333 5.84166667,21.7583333 L8.35833333,19.2375 L8.3625,19.1583333 C8.37083333,19.0083333 8.38333333,18.8583333 8.4,18.7125 C8.43333333,18.4166667 8.475,18.1208333 8.52916667,17.8291667 C8.55416667,17.6833333 8.58333333,17.5375 8.61666667,17.3916667 C8.66666667,17.1666667 8.725,16.9416667 8.79166667,16.7166667 C8.81666667,16.625 8.84166667,16.5333333 8.87083333,16.4416667 C8.92083333,16.2916667 8.97083333,16.1458333 9.025,16 L11.6416667,18.6208333 C11.6625,18.6416667 11.6833333,18.6583333 11.7125,18.6958333 C11.725,18.7083333 11.7333333,18.7208333 11.7666667,18.7583333 C11.7958333,18.7958333 11.8291667,18.8333333 11.8625,18.8916667 C11.875,18.9083333 11.8916667,18.9291667 11.9125,18.975 C11.9625,19.0458333 12,19.1208333 12.0416667,19.2166667 C12.0541667,19.2416667 12.0625,19.2666667 12.0708333,19.3041667 C12.125,19.4458333 12.1583333,19.5916667 12.175,19.7458333 C12.175,19.7791667 12.1791667,19.8083333 12.1791667,19.8541667 C12.1916667,19.9916667 12.1833333,20.1333333 12.1541667,20.275 L12.125,20.3958333 C12.1208333,20.4333333 12.1083333,20.4666667 12.0958333,20.5083333 C12.075,20.5875 12.0416667,20.6708333 11.9833333,20.7791667 C11.9708333,20.8125 11.95,20.8458333 11.925,20.8958333 C11.8833333,20.9625 11.8375,21.0291667 11.7833333,21.1 C11.7458333,21.1458333 11.7041667,21.1916667 11.6375,21.2666667 L9.02916667,23.8708333 L8.3875,24.5166667 C7.325,25.6458333 6.85833333,27.2333333 7.12916667,28.7625 C7.275,29.625 7.65416667,30.4291667 8.22083333,31.0916667 L8.25833333,31.1375 L8.2625,31.1416667 C8.33333333,31.225 8.4125,31.3083333 8.49166667,31.3875 C8.57916667,31.475 8.67083333,31.5625 8.75416667,31.6291667 L8.7875,31.6583333 C8.95833333,31.8041667 9.13333333,31.9333333 9.32083333,32.05 C9.40833333,32.1083333 9.5,32.1625 9.59166667,32.2125 C9.6875,32.2666667 9.78333333,32.3166667 9.87916667,32.3583333 C9.975,32.4041667 10.0708333,32.4458333 10.1708333,32.4833333 C10.1791667,32.4875 10.1875,32.4916667 10.1958333,32.4958333 C10.2791667,32.525 10.3625,32.5541667 10.4458333,32.5833333 C10.5333333,32.6125 10.625,32.6375 10.7125,32.6583333 C10.775,32.6791667 10.8375,32.6916667 10.9041667,32.7041667 C10.925,32.7125 10.9458333,32.7166667 10.9666667,32.7208333 C10.9708333,32.7416667 10.975,32.7625 10.9791667,32.7833333 C10.9958333,32.8791667 11.0166667,32.975 11.0375,33.075 C11.0625,33.1916667 11.0916667,33.3166667 11.1208333,33.4416667 C11.1583333,33.5833333 11.1958333,33.7208333 11.2375,33.8583333 C11.2666667,33.9583333 11.3,34.0541667 11.3375,34.15 C11.3666667,34.2458333 11.4,34.3416667 11.4416667,34.4375 C11.4791667,34.5458333 11.5208333,34.6541667 11.5708333,34.7625 C11.6208333,34.8833333 11.675,35.0041667 11.7375,35.125 L11.7416667,35.1291667 C11.7666667,35.1916667 11.7958333,35.25 11.8291667,35.3125 C11.8333333,35.3208333 11.8375,35.325 11.8416667,35.3333333 C11.8791667,35.4166667 11.925,35.5041667 11.975,35.5875 C11.9958333,35.6291667 12.0208333,35.6708333 12.0458333,35.7125 C12.1125,35.8333333 12.1875,35.9583333 12.2666667,36.075 C12.325,36.1708333 12.3875,36.2625 12.45,36.35 C12.4958333,36.4208333 12.5458333,36.4875 12.5916667,36.5541667" id="Fill-17" fill="#56C1EF"></path>
                <path d="M36.5791944,11.9666667 C36.5791944,12.3 36.5583611,12.6333333 36.5208611,12.9666667 C36.3833611,14.1916667 35.9958611,15.35 35.3666944,16.4083333 C35.2666944,16.5791667 35.1666944,16.7375 35.0708611,16.8791667 C35.0125278,16.9625 34.9541944,17.0375 34.9000278,17.1125 L34.8125278,17.2333333 C34.8041944,17.2458333 34.7958611,17.2541667 34.7875278,17.2625 C34.7083611,17.3708333 34.6208611,17.4791667 34.5291944,17.5833333 C34.5166944,17.6 34.5041944,17.6166667 34.4875278,17.6333333 C34.4458611,17.6875 34.4000278,17.7375 34.3500278,17.7875 C34.2500278,17.9 34.1458611,18.0125 34.0375278,18.1208333 L31.5208611,20.6375 L31.5125278,20.7166667 C31.5041944,20.8708333 31.4916944,21.025 31.4750278,21.175 C31.4583611,21.3208333 31.4416944,21.4625 31.4208611,21.6083333 C31.3958611,21.8 31.3625278,21.9958333 31.3208611,22.1875 C31.3000278,22.3125 31.2708611,22.4375 31.2416944,22.5625 C31.2250278,22.65 31.2041944,22.7375 31.1791944,22.825 C31.1666944,22.8791667 31.1500278,22.9375 31.1333611,22.9958333 C31.1041944,23.1125 31.0708611,23.225 31.0333611,23.3416667 C31.0000278,23.4541667 30.9625278,23.5666667 30.9250278,23.6791667 C30.9041944,23.7458333 30.8791944,23.8083333 30.8541944,23.875 L28.2041944,21.225 C28.1708611,21.1916667 28.1416944,21.1583333 28.1125278,21.125 C28.0458611,21.0416667 27.9875278,20.9583333 27.9375278,20.8666667 C27.9208611,20.8375 27.9041944,20.8041667 27.8916944,20.7708333 L27.8208611,20.6208333 C27.8041944,20.5833333 27.7916944,20.5458333 27.7791944,20.5041667 C27.7708611,20.4666667 27.7583611,20.4333333 27.7500278,20.3958333 L27.7500278,20.3708333 L27.7250278,20.2833333 C27.6958611,20.1333333 27.6875278,19.9958333 27.6958611,19.8375 C27.6958611,19.8083333 27.7000278,19.7791667 27.7041944,19.7375 C27.7208611,19.5916667 27.7541944,19.4416667 27.8083611,19.2958333 C27.8166944,19.2666667 27.8250278,19.2416667 27.8458611,19.2 C27.8750278,19.1208333 27.9166944,19.0458333 27.9750278,18.9541667 C27.9875278,18.9291667 28.0000278,18.9083333 28.0250278,18.875 C28.0500278,18.8333333 28.0833611,18.7958333 28.1333611,18.7291667 C28.1458611,18.7166667 28.1541944,18.7041667 28.1750278,18.6833333 C28.1958611,18.6583333 28.2166944,18.6416667 28.2416944,18.6166667 L31.3875278,15.4708333 L31.4916944,15.3625 C32.5541944,14.2291667 33.0250278,12.6416667 32.7500278,11.1166667 C32.6000278,10.2583333 32.2250278,9.45416667 31.6583611,8.79166667 L31.6166944,8.74166667 L31.6125278,8.7375 C31.5416944,8.65416667 31.4625278,8.575 31.3875278,8.49583333 C31.3000278,8.40833333 31.2041944,8.32083333 31.1250278,8.25416667 L31.0916944,8.22083333 C30.9208611,8.075 30.7458611,7.94583333 30.5583611,7.82916667 C30.4708611,7.77083333 30.3791944,7.71666667 30.2875278,7.66666667 C30.2083611,7.62083333 30.1291944,7.57916667 30.0458611,7.54166667 C29.9625278,7.5 29.8791944,7.4625 29.7958611,7.42916667 C29.7916944,7.425 29.7875278,7.425 29.7833611,7.425 C29.7125278,7.39583333 29.6416944,7.36666667 29.5666944,7.34166667 C29.4375278,7.29166667 29.3041944,7.25 29.1708611,7.22083333 C29.0958611,7.2 29.0250278,7.18333333 28.9500278,7.16666667 C28.9375278,7.1625 28.9208611,7.15833333 28.9083611,7.15833333 C28.8958611,7.06666667 28.8791944,6.97916667 28.8583611,6.88333333 C28.8541944,6.85833333 28.8458611,6.83333333 28.8416944,6.80416667 C28.8166944,6.6875 28.7916944,6.56666667 28.7583611,6.4375 C28.7291944,6.3375 28.7041944,6.2375 28.6750278,6.1375 C28.6583611,6.08333333 28.6416944,6.02916667 28.6250278,5.975 C28.5791944,5.82916667 28.5291944,5.68333333 28.4750278,5.5375 C28.4041944,5.34166667 28.3250278,5.14583333 28.2375278,4.95416667 C28.2000278,4.875 28.1625278,4.79583333 28.1250278,4.71666667 C28.0833611,4.62916667 28.0375278,4.54166667 27.9916944,4.45416667 C27.9750278,4.425 27.9583611,4.39166667 27.9416944,4.3625 C27.8916944,4.2625 27.8333611,4.16666667 27.7750278,4.07083333 C27.7625278,4.04166667 27.7458611,4.01666667 27.7291944,3.99166667 C27.6791944,3.90416667 27.6250278,3.82083333 27.5708611,3.7375 C27.5208611,3.6625 27.4708611,3.5875 27.4208611,3.51666667 C27.3791944,3.45416667 27.3333611,3.3875 27.2833611,3.325 C29.8041944,3.14583333 32.2458611,4.05 34.0375278,5.84166667 C35.6791944,7.48333333 36.5791944,9.675 36.5791944,11.9666667" id="Fill-19" fill="#56C1EF"></path>
                <path d="M34.0375,34.0375278 C32.1583333,35.9166944 29.5625,36.8208611 26.9125,36.5208611 C25.6833333,36.3833611 24.525,35.9958611 23.4708333,35.3666944 C23.2666667,35.2500278 23.0875,35.1333611 22.925,35.0166944 C22.8666667,34.9791944 22.8166667,34.9416944 22.7625,34.9000278 C22.4083333,34.6416944 22.0708333,34.3500278 21.7583333,34.0375278 L19.2375,31.5208611 L19.1625,31.5125278 C18.6,31.4791944 18.0416667,31.4000278 17.4958333,31.2833611 C17.3833333,31.2625278 17.2666667,31.2333611 17.1541667,31.2041944 C17.0541667,31.1833611 16.9541667,31.1541944 16.8541667,31.1250278 C16.6833333,31.0791944 16.5125,31.0291944 16.3416667,30.9708611 C16.2375,30.9375278 16.1333333,30.9041944 16.0291667,30.8625278 C16.0208333,30.8625278 16.0083333,30.8583611 16,30.8541944 L18.6916667,28.1708611 C18.7375,28.1250278 18.7875,28.0833611 18.875,28.0250278 C18.8916667,28.0125278 18.9083333,28.0000278 18.95,27.9750278 C18.9916667,27.9458611 19.0291667,27.9250278 19.075,27.9000278 C19.1041667,27.8875278 19.125,27.8750278 19.1875,27.8500278 C19.2083333,27.8375278 19.2291667,27.8291944 19.2625,27.8166944 C19.3125,27.7958611 19.3625,27.7791944 19.425,27.7625278 C19.4791667,27.7500278 19.5333333,27.7375278 19.5916667,27.7250278 C19.7541667,27.6958611 19.9166667,27.6833611 20.1041667,27.7000278 C20.1291667,27.7000278 20.15,27.7041944 20.2,27.7125278 C20.2375,27.7166944 20.275,27.7208611 20.3291667,27.7375278 C20.3708333,27.7416944 20.4166667,27.7541944 20.4583333,27.7666944 C20.4958333,27.7750278 20.5333333,27.7875278 20.5833333,27.8083611 C20.625,27.8250278 20.6666667,27.8375278 20.7083333,27.8583611 C20.7458333,27.8750278 20.7833333,27.8916944 20.8375,27.9208611 C20.9291667,27.9666944 21.025,28.0291944 21.1208333,28.1083611 L21.1583333,28.1375278 C21.175,28.1541944 21.1875,28.1666944 21.2041667,28.1833611 L23.8708333,30.8500278 L24.5166667,31.4916944 C24.6333333,31.6000278 24.75,31.7000278 24.875,31.7958611 C25.0583333,31.9416944 25.2541667,32.0708611 25.4541667,32.1833611 L25.4583333,32.1833611 C25.6625,32.3000278 25.8708333,32.4000278 26.0833333,32.4833611 L26.0875,32.4833611 C26.1625,32.5083611 26.2333333,32.5375278 26.3083333,32.5625278 C26.525,32.6375278 26.7458333,32.6958611 26.975,32.7375278 C27.2791667,32.7958611 27.5875,32.8250278 27.9,32.8250278 C28.1875,32.8250278 28.475,32.8000278 28.7625,32.7500278 C29.6166667,32.6000278 30.425,32.2250278 31.1166667,31.6333611 C31.2083333,31.5583611 31.3041667,31.4708611 31.3875,31.3875278 C31.4666667,31.3041944 31.5458333,31.2208611 31.6208333,31.1333611 L31.6541667,31.0958611 C31.8833333,30.8291944 32.0791667,30.5416944 32.2416667,30.2333611 C32.2833333,30.1583611 32.325,30.0791944 32.3583333,30.0000278 C32.4041667,29.9041944 32.4458333,29.8041944 32.4833333,29.7083611 C32.4875,29.7000278 32.4916667,29.6958611 32.4916667,29.6916944 C32.525,29.6000278 32.5583333,29.5125278 32.5875,29.4208611 C32.6125,29.3375278 32.6375,29.2541944 32.6583333,29.1708611 C32.6791667,29.1000278 32.6958333,29.0250278 32.7125,28.9500278 C32.7166667,28.9375278 32.7208333,28.9208611 32.7208333,28.9083611 C32.8125,28.8916944 32.9041667,28.8750278 32.9958333,28.8583611 C33.0208333,28.8541944 33.0458333,28.8500278 33.0708333,28.8416944 C33.1916667,28.8166944 33.3166667,28.7916944 33.4416667,28.7583611 C33.55,28.7291944 33.6625,28.7000278 33.7708333,28.6666944 C33.8125,28.6541944 33.8583333,28.6375278 33.9041667,28.6250278 C34.0333333,28.5833611 34.1666667,28.5416944 34.2958333,28.4916944 C34.425,28.4458611 34.5583333,28.3916944 34.6833333,28.3375278 C34.7916667,28.2958611 34.8958333,28.2500278 35,28.2000278 C35.0375,28.1875278 35.0708333,28.1666944 35.1083333,28.1500278 C35.225,28.0958611 35.3416667,28.0375278 35.4541667,27.9750278 C35.5708333,27.9125278 35.6833333,27.8500278 35.7958333,27.7833611 C35.9,27.7250278 36,27.6625278 36.0958333,27.6000278 C36.1041667,27.5916944 36.1166667,27.5875278 36.125,27.5791944 C36.1916667,27.5333611 36.2583333,27.4916944 36.325,27.4458611 C36.35,27.4291944 36.3708333,27.4166944 36.3916667,27.4000278 C36.4458333,27.3625278 36.5,27.3208611 36.5541667,27.2833611 C36.7333333,29.8041944 35.8291667,32.2458611 34.0375,34.0375278" id="Fill-21" fill="#56C1EF"></path>
                <path d="M23.8791667,9.025 L21.2583333,11.6458333 C20.5291667,12.3625 19.3458333,12.3625 18.6041667,11.6291667 L15.9958333,9.02083333 L15.3625,8.39166667 C14.2291667,7.32916667 12.6416667,6.85833333 11.1166667,7.12916667 C10.2583333,7.275 9.45,7.65416667 8.75833333,8.25 L8.73333333,8.275 C8.64583333,8.34166667 8.56666667,8.42083333 8.49166667,8.49583333 C8.40833333,8.57916667 8.33333333,8.65833333 8.25833333,8.75 L8.22083333,8.7875 C8.075,8.95833333 7.94583333,9.13333333 7.82916667,9.32083333 C7.77083333,9.40833333 7.71666667,9.5 7.66666667,9.59166667 C7.62083333,9.67083333 7.57916667,9.75 7.54166667,9.83333333 C7.5,9.9125 7.4625,9.99583333 7.42916667,10.0833333 C7.425,10.0875 7.425,10.0916667 7.425,10.0958333 C7.4,10.1541667 7.375,10.2166667 7.35416667,10.2791667 C7.32916667,10.3375 7.30833333,10.3958333 7.29166667,10.4541667 C7.2625,10.5416667 7.2375,10.625 7.22083333,10.7125 C7.2,10.775 7.1875,10.8375 7.175,10.9041667 C7.16666667,10.925 7.1625,10.9458333 7.15833333,10.9666667 C7.06666667,10.9833333 6.975,11 6.87916667,11.0208333 C6.8125,11.0333333 6.74583333,11.0458333 6.67916667,11.0625 C6.6,11.0791667 6.52083333,11.1 6.4375,11.1208333 C6.29583333,11.1541667 6.15833333,11.1958333 6.02083333,11.2375 C5.92083333,11.2666667 5.825,11.3 5.72916667,11.3375 C5.62916667,11.3666667 5.53333333,11.4 5.44166667,11.4416667 C5.32916667,11.4791667 5.22083333,11.5208333 5.11666667,11.5708333 C4.99166667,11.6208333 4.87083333,11.675 4.75416667,11.7375 C4.68333333,11.7666667 4.61666667,11.8 4.54583333,11.8416667 C4.45833333,11.8791667 4.375,11.925 4.29166667,11.975 C4.24583333,11.9958333 4.2,12.0208333 4.15833333,12.05 C4.0625,12.1041667 3.96666667,12.1583333 3.875,12.2208333 C3.6875,12.3375 3.50416667,12.4625 3.325,12.5916667 C3.14166667,10.075 4.05,7.62916667 5.84166667,5.84166667 C7.48333333,4.2 9.67083333,3.3 11.9625,3.3 C12.2958333,3.3 12.6291667,3.32083333 12.9666667,3.35833333 C14.1916667,3.49583333 15.35,3.88333333 16.4083333,4.50833333 C16.6125,4.62916667 16.7916667,4.74583333 16.9541667,4.8625 C17.0083333,4.9 17.0625,4.9375 17.1125,4.975 L17.2333333,5.06666667 C17.5416667,5.3 17.8416667,5.55833333 18.1208333,5.84166667 L18.9958333,6.70833333 C19.0083333,6.73333333 19.0333333,6.75416667 19.0541667,6.77916667 L20.6375,8.35833333 L20.7166667,8.3625 C20.8666667,8.37083333 21.0166667,8.38333333 21.1625,8.4 C21.4583333,8.43333333 21.7541667,8.475 22.0458333,8.52916667 C22.1708333,8.55 22.2958333,8.575 22.4208333,8.60416667 C22.8333333,8.69166667 23.2458333,8.80416667 23.6458333,8.94583333 C23.7208333,8.96666667 23.7916667,8.99166667 23.8625,9.02083333 C23.8708333,9.02083333 23.875,9.02083333 23.8791667,9.025" id="Fill-23" fill="#56C1EF"></path>
                <path d="M15.0041667,9.44166667 L15.0041667,13.1291667 C15.0041667,14.1625 14.1625,15.0041667 13.1291667,15.0041667 L8.68333333,15.0041667 C8.62916667,15.0041667 8.57083333,15.0041667 8.53333333,15.0083333 C6.97916667,15.0541667 5.525,15.8458333 4.6375,17.1208333 C4.1125,17.875 3.80833333,18.7625 3.75416667,19.6875 C3.75,19.7708333 3.75,19.85 3.75,19.9375 C3.75,20.025 3.75,20.1083333 3.75416667,20.1916667 C3.7625,20.3083333 3.77083333,20.4208333 3.7875,20.5375 C3.8,20.65 3.82083333,20.7625 3.84166667,20.875 C3.8625,20.9875 3.8875,21.1 3.92083333,21.2125 C3.95,21.3208333 3.98333333,21.4291667 4.02083333,21.5333333 C4.01666667,21.5375 4.02083333,21.5458333 4.025,21.55 C4.05833333,21.65 4.09166667,21.7458333 4.13333333,21.8375 C4.14583333,21.8666667 4.15416667,21.8958333 4.17083333,21.9208333 C4.2,21.9916667 4.22916667,22.0583333 4.26666667,22.125 C4.275,22.1416667 4.28333333,22.1583333 4.29166667,22.175 C4.31666667,22.2291667 4.34583333,22.2875 4.37916667,22.3416667 C4.38333333,22.3458333 4.38333333,22.35 4.3875,22.3541667 C4.42916667,22.4333333 4.475,22.5083333 4.525,22.5833333 C4.525,22.5875 4.52916667,22.5958333 4.53333333,22.6 C4.54166667,22.6125 4.54583333,22.6208333 4.55416667,22.6333333 C4.42083333,22.8208333 4.2875,23.025 4.15,23.2583333 C4.075,23.3875 4,23.5166667 3.93333333,23.65 C3.90416667,23.7083333 3.875,23.7625 3.84583333,23.8208333 C3.775,23.9583333 3.7125,24.0958333 3.65,24.2375 C3.60416667,24.3375 3.5625,24.4375 3.525,24.5375 C3.52083333,24.5416667 3.51666667,24.55 3.51666667,24.5583333 C3.47083333,24.675 3.425,24.7875 3.3875,24.9041667 C3.35833333,24.9875 3.32916667,25.075 3.30416667,25.1625 C3.2875,25.2041667 3.275,25.2458333 3.26666667,25.2875 C3.2375,25.3791667 3.20833333,25.475 3.1875,25.5708333 C3.17083333,25.625 3.15833333,25.6791667 3.14583333,25.7333333 C3.12083333,25.825 3.1,25.9208333 3.08333333,26.0125 C3.05416667,26.1458333 3.02916667,26.2791667 3.00833333,26.4125 C3.00416667,26.4375 3,26.4625 2.99583333,26.4875 C1.0875,24.8375 0,22.4708333 0,19.9375 C0,17.2791667 1.19583333,14.8083333 3.28333333,13.15 C4.22916667,12.3875 5.35833333,11.825 6.54166667,11.525 C6.8125,11.4541667 7.07083333,11.4 7.325,11.3666667 C7.3375,11.3625 7.35416667,11.3583333 7.36666667,11.3583333 C7.41666667,11.35 7.4625,11.3416667 7.5125,11.3375 C7.88333333,11.2833333 8.27916667,11.2541667 8.68333333,11.2541667 L12.2458333,11.2541667 L12.3041667,11.2041667 C12.5458333,10.9916667 12.7958333,10.7916667 13.0541667,10.6041667 C13.1583333,10.525 13.2625,10.45 13.3666667,10.3791667 C13.4833333,10.2958333 13.6041667,10.2166667 13.725,10.1416667 C13.7333333,10.1333333 13.7458333,10.125 13.7541667,10.125 C13.85,10.0583333 13.95,10 14.05,9.94166667 C14.0916667,9.91666667 14.1333333,9.89166667 14.175,9.86666667 C14.2833333,9.80416667 14.3916667,9.74583333 14.5041667,9.6875 C14.6166667,9.625 14.7333333,9.56666667 14.85,9.5125 C14.875,9.5 14.9,9.4875 14.925,9.475 C14.95,9.4625 14.9791667,9.45 15.0041667,9.44166667" id="Fill-25" fill="#B1A1CC"></path>
                <path d="M39.875,19.9375 C39.875,22.5958333 38.6791667,25.0708333 36.5958333,26.725 C35.6458333,27.4916667 34.5208333,28.0541667 33.3375,28.3541667 C33.0625,28.425 32.8041667,28.4791667 32.55,28.5125 C32.5375,28.5166667 32.5208333,28.5208333 32.5083333,28.5208333 C32.4583333,28.5291667 32.4125,28.5375 32.3625,28.5416667 C32.2708333,28.5541667 32.175,28.5666667 32.0791667,28.575 C31.9833333,28.5875 31.8875,28.5958333 31.7916667,28.6 C31.6916667,28.6083333 31.5916667,28.6125 31.4916667,28.6166667 C31.3916667,28.6208333 31.2916667,28.6208333 31.1916667,28.6208333 L27.6333333,28.6208333 L27.575,28.675 C27.1583333,29.0416667 26.7166667,29.3791667 26.25,29.6791667 C26.1833333,29.7208333 26.1208333,29.7666667 26.05,29.8083333 C26.0416667,29.8125 26.0291667,29.8208333 26.0208333,29.825 C25.9375,29.875 25.85,29.9291667 25.7625,29.9791667 C25.6375,30.05 25.5125,30.1208333 25.3833333,30.1875 C25.2833333,30.2416667 25.1791667,30.2958333 25.0708333,30.3458333 C25.0541667,30.3541667 25.0375,30.3625 25.0208333,30.3708333 C25,30.3833333 24.9791667,30.3958333 24.9541667,30.4041667 C24.9458333,30.4083333 24.9416667,30.4125 24.9333333,30.4166667 C24.9125,30.425 24.8916667,30.4333333 24.8708333,30.4416667 L24.8708333,26.7458333 C24.8708333,25.7125 25.7125,24.8708333 26.7458333,24.8708333 L31.1916667,24.8708333 C31.25,24.8708333 31.3041667,24.8708333 31.3458333,24.8666667 C32.8958333,24.8208333 34.3541667,24.0333333 35.2375,22.7583333 C35.7666667,22.0041667 36.0708333,21.1166667 36.1208333,20.1916667 C36.125,20.1083333 36.125,20.025 36.125,19.9375 C36.125,19.85 36.125,19.7708333 36.1208333,19.6875 C36.1166667,19.5791667 36.1041667,19.4708333 36.0916667,19.3625 C36.0875,19.3041667 36.0791667,19.2458333 36.0666667,19.1916667 C36.0583333,19.1291667 36.05,19.0666667 36.0375,19.0041667 C36.0125,18.8916667 35.9875,18.7791667 35.9583333,18.6666667 C35.9291667,18.5583333 35.8958333,18.45 35.8583333,18.3416667 C35.8291667,18.25 35.7958333,18.1625 35.7583333,18.0708333 C35.7375,18.0208333 35.7166667,17.9708333 35.6916667,17.9208333 C35.6666667,17.8625 35.6375,17.8041667 35.6083333,17.7458333 C35.5916667,17.7125 35.575,17.6791667 35.5541667,17.6458333 C35.525,17.5791667 35.4875,17.5125 35.4458333,17.4458333 C35.4291667,17.4125 35.4125,17.3833333 35.3916667,17.3541667 C35.3666667,17.3166667 35.3458333,17.2791667 35.3208333,17.2416667 C35.4541667,17.0583333 35.5875,16.8541667 35.725,16.6208333 C35.9583333,16.225 36.1625,15.8208333 36.3291667,15.4 C36.3708333,15.3 36.4125,15.1958333 36.4458333,15.0916667 C36.4916667,14.9791667 36.5291667,14.8666667 36.5625,14.7541667 C36.5833333,14.6875 36.6083333,14.6166667 36.625,14.5458333 C36.6291667,14.5333333 36.6333333,14.525 36.6333333,14.5166667 C36.65,14.4708333 36.6625,14.425 36.6708333,14.3791667 C36.6791667,14.3625 36.6833333,14.35 36.6833333,14.3333333 C36.7,14.2791667 36.7125,14.225 36.7291667,14.1708333 C36.7458333,14.1 36.7625,14.0333333 36.775,13.9625 C36.8041667,13.8333333 36.8291667,13.7041667 36.85,13.5708333 C36.8625,13.5083333 36.875,13.45 36.8833333,13.3875 C38.7916667,15.0375 39.875,17.4041667 39.875,19.9375" id="Fill-27" fill="#B1A1CC"></path>
                <path d="M30.4375,15.0041667 L26.7458333,15.0041667 C25.7125,15.0041667 24.8708333,14.1625 24.8708333,13.1291667 L24.8708333,8.68333333 C24.8708333,8.63333333 24.8708333,8.575 24.8666667,8.5375 C24.8208333,6.98333333 24.0333333,5.525 22.7583333,4.6375 C22.0041667,4.1125 21.1166667,3.80833333 20.1916667,3.75416667 C20.1083333,3.75 20.025,3.75 19.9375,3.75 C19.85,3.75 19.7666667,3.75 19.6875,3.75416667 C19.5708333,3.7625 19.4541667,3.77083333 19.3416667,3.7875 C19.2291667,3.8 19.1166667,3.82083333 19.0041667,3.84166667 C18.8916667,3.8625 18.7791667,3.8875 18.6666667,3.92083333 C18.5583333,3.95 18.45,3.98333333 18.3416667,4.02083333 C18.2333333,4.05833333 18.125,4.09583333 18.0208333,4.14166667 L18.0166667,4.14166667 C17.925,4.18333333 17.8333333,4.225 17.7458333,4.27083333 C17.6583333,4.30833333 17.575,4.35416667 17.4916667,4.40416667 C17.4333333,4.43333333 17.3791667,4.46666667 17.325,4.50416667 C17.2958333,4.52083333 17.2708333,4.5375 17.2416667,4.55416667 C17.0583333,4.42083333 16.8541667,4.2875 16.6208333,4.15 C16.2916667,3.95416667 15.95,3.77916667 15.6,3.63333333 C15.5208333,3.59583333 15.4416667,3.5625 15.3625,3.53333333 C15.0208333,3.39583333 14.6666667,3.27916667 14.3083333,3.1875 C14.2541667,3.17083333 14.2,3.15833333 14.1458333,3.14583333 C14.0541667,3.12083333 13.9583333,3.1 13.8666667,3.08333333 C13.7083333,3.05 13.55,3.02083333 13.3875,2.99583333 C15.0375,1.0875 17.4041667,0 19.9375,0 C22.5958333,0 25.0708333,1.19583333 26.725,3.28333333 C27.4916667,4.22916667 28.0541667,5.35833333 28.3541667,6.54166667 C28.3833333,6.65 28.4083333,6.75416667 28.4291667,6.85833333 C28.45,6.9625 28.4708333,7.0625 28.4875,7.1625 C28.5,7.22916667 28.5125,7.3 28.5208333,7.36666667 C28.5291667,7.41666667 28.5375,7.4625 28.5416667,7.5125 C28.5541667,7.60416667 28.5666667,7.7 28.575,7.79583333 C28.5875,7.89166667 28.5958333,7.9875 28.6,8.08333333 C28.6083333,8.18333333 28.6125,8.28333333 28.6166667,8.38333333 C28.6208333,8.48333333 28.6208333,8.58333333 28.6208333,8.68333333 L28.6208333,12.2458333 L28.675,12.3041667 C28.8208333,12.4666667 28.9583333,12.6375 29.0875,12.8083333 C29.1666667,12.9083333 29.2416667,13.0083333 29.3166667,13.1083333 C29.3791667,13.1916667 29.4375,13.275 29.4958333,13.3583333 C29.6666667,13.6083333 29.8291667,13.8625 29.9791667,14.1208333 C30.05,14.2458333 30.1208333,14.3708333 30.1875,14.5 C30.2583333,14.6291667 30.325,14.7625 30.3875,14.8958333 C30.4083333,14.9333333 30.425,14.9666667 30.4375,15.0041667" id="Fill-29" fill="#B1A1CC"></path>
                <path d="M26.4875,36.8833333 C24.8375,38.7916667 22.4708333,39.875 19.9375,39.875 C17.2791667,39.875 14.8083333,38.6791667 13.15,36.5958333 C12.3875,35.6458333 11.825,34.5208333 11.525,33.3375 C11.4958333,33.2291667 11.4708333,33.1208333 11.45,33.0166667 C11.4333333,32.9416667 11.4166667,32.8666667 11.4041667,32.7958333 C11.4,32.7666667 11.3958333,32.7416667 11.3916667,32.7125 C11.3791667,32.6416667 11.3666667,32.575 11.3583333,32.5083333 C11.35,32.4583333 11.3416667,32.4125 11.3375,32.3625 C11.325,32.2875 11.3166667,32.2125 11.3083333,32.1375 C11.2958333,32.05 11.2875,31.9583333 11.2833333,31.8666667 C11.2708333,31.7583333 11.2666667,31.6458333 11.2625,31.5333333 C11.2583333,31.4208333 11.2541667,31.3083333 11.2541667,31.1916667 L11.2541667,27.6333333 L11.2041667,27.575 C11.025,27.375 10.8541667,27.1666667 10.6916667,26.95 C10.6333333,26.8708333 10.575,26.7958333 10.5208333,26.7166667 C10.5041667,26.6958333 10.4875,26.6708333 10.4708333,26.65 C10.3791667,26.5166667 10.2875,26.3833333 10.2,26.25 C10.1583333,26.1833333 10.1125,26.1208333 10.0708333,26.05 C10.0666667,26.0416667 10.0583333,26.0291667 10.0541667,26.0208333 C10.0416667,26 10.0291667,25.9791667 10.0166667,25.9583333 C9.9375,25.8291667 9.85833333,25.6916667 9.78333333,25.5541667 C9.77083333,25.5291667 9.75416667,25.5041667 9.74166667,25.4791667 C9.65416667,25.3166667 9.57083333,25.15 9.4875,24.9833333 C9.48333333,24.975 9.47916667,24.9625 9.475,24.9541667 C9.47083333,24.9458333 9.46666667,24.9416667 9.4625,24.9333333 C9.45416667,24.9125 9.44583333,24.8916667 9.4375,24.8708333 L13.1291667,24.8708333 C14.1625,24.8708333 15.0041667,25.7125 15.0041667,26.7458333 L15.0041667,31.1916667 C15.0041667,31.25 15.0041667,31.3041667 15.0083333,31.3458333 C15.0541667,32.8958333 15.8458333,34.3541667 17.1208333,35.2375 C17.875,35.7666667 18.7625,36.0708333 19.6875,36.1208333 C19.8541667,36.1291667 20.025,36.1291667 20.1916667,36.1208333 C20.3,36.1166667 20.4083333,36.1041667 20.5166667,36.0916667 C20.575,36.0875 20.6333333,36.0791667 20.6875,36.0666667 C20.75,36.0583333 20.8125,36.05 20.875,36.0375 C20.9875,36.0125 21.1,35.9875 21.2125,35.9583333 C21.3166667,35.9291667 21.4166667,35.9 21.5166667,35.8625 C21.6041667,35.8375 21.6958333,35.8041667 21.7791667,35.7666667 C21.8458333,35.7416667 21.9125,35.7125 21.9791667,35.6833333 C22.0291667,35.6625 22.075,35.6375 22.125,35.6125 C22.2125,35.5708333 22.3,35.5208333 22.3875,35.4708333 C22.4541667,35.4333333 22.5208333,35.3916667 22.5875,35.35 C22.6041667,35.3416667 22.6166667,35.3291667 22.6333333,35.3208333 C22.7083333,35.375 22.7875,35.4291667 22.8708333,35.4833333 C22.9333333,35.525 22.9916667,35.5625 23.0583333,35.6041667 C23.1208333,35.6458333 23.1875,35.6833333 23.2583333,35.725 C23.8791667,36.0916667 24.5291667,36.3833333 25.2083333,36.5875 C25.25,36.6 25.2916667,36.6166667 25.3333333,36.625 C25.4041667,36.65 25.475,36.6666667 25.5458333,36.6833333 C25.6,36.7 25.6541667,36.7125 25.7083333,36.7291667 C25.775,36.7458333 25.8458333,36.7625 25.9166667,36.775 C26.0541667,36.8041667 26.1916667,36.8333333 26.3333333,36.8541667 C26.3833333,36.8666667 26.4375,36.875 26.4875,36.8833333" id="Fill-31" fill="#B1A1CC"></path>
            </g>
            <text id="CYY" font-family="PangMenZhengDao" font-size="20" font-weight="normal" fill="#FFFFFF">
                <tspan x="46" y="26">CYY</tspan>
            </text>
        </g>
    </g>
</svg>